<svg width="4e3" height="2500" version="1.1" viewBox="0 0 4e3 2500" xmlns="http://www.w3.org/2000/svg" xmlns:xlink="http://www.w3.org/1999/xlink">
 <defs>
  <filter id="filter198" x="0" y="0" width="1.02" height="1.08" color-interpolation-filters="sRGB">
   <feTurbulence baseFrequency="0.01 0.01" numOctaves="2" result="turbulence" seed="1" type="fractalNoise"/>
   <feDisplacementMap in="SourceGraphic" in2="turbulence" result="fbSourceGraphic" scale="25" xChannelSelector="R" yChannelSelector="G"/>
   <feColorMatrix in="fbSourceGraphic" result="fbSourceGraphicAlpha" values="0 0 0 -1 0 0 0 0 -1 0 0 0 0 -1 0 0 0 0 1 0"/>
   <feFlood flood-color="rgb(85,119,170)" in="fbSourceGraphic" result="flood"/>
   <feGaussianBlur in="fbSourceGraphic" result="blur" stdDeviation="0.000000"/>
   <feOffset dx="35.000000" dy="35.000000" in="blur" result="offset"/>
   <feComposite in="flood" in2="offset" operator="in" result="comp1"/>
   <feComposite in="fbSourceGraphic" in2="comp1" result="comp2"/>
  </filter>
  <filter id="filter198-7" x="0" y="0" width="1.01" height="1.08" color-interpolation-filters="sRGB">
   <feTurbulence baseFrequency="0.01 0.01" numOctaves="2" result="turbulence" seed="1" type="fractalNoise"/>
   <feDisplacementMap in="SourceGraphic" in2="turbulence" result="fbSourceGraphic" scale="25" xChannelSelector="R" yChannelSelector="G"/>
   <feColorMatrix in="fbSourceGraphic" result="fbSourceGraphicAlpha" values="0 0 0 -1 0 0 0 0 -1 0 0 0 0 -1 0 0 0 0 1 0"/>
   <feFlood flood-color="rgb(85,119,170)" in="fbSourceGraphic" result="flood"/>
   <feGaussianBlur in="fbSourceGraphic" result="blur" stdDeviation="0.000000"/>
   <feOffset dx="35.000000" dy="35.000000" in="blur" result="offset"/>
   <feComposite in="flood" in2="offset" operator="in" result="comp1"/>
   <feComposite in="fbSourceGraphic" in2="comp1" result="comp2"/>
  </filter>
  <filter id="filter198-5" x="0" y="0" width="1.01" height="1.06" color-interpolation-filters="sRGB">
   <feTurbulence baseFrequency="0.01 0.01" numOctaves="2" result="turbulence" seed="1" type="fractalNoise"/>
   <feDisplacementMap in="SourceGraphic" in2="turbulence" result="fbSourceGraphic" scale="25" xChannelSelector="R" yChannelSelector="G"/>
   <feColorMatrix in="fbSourceGraphic" result="fbSourceGraphicAlpha" values="0 0 0 -1 0 0 0 0 -1 0 0 0 0 -1 0 0 0 0 1 0"/>
   <feFlood flood-color="rgb(85,119,170)" in="fbSourceGraphic" result="flood"/>
   <feGaussianBlur in="fbSourceGraphic" result="blur" stdDeviation="0.000000"/>
   <feOffset dx="35.000000" dy="35.000000" in="blur" result="offset"/>
   <feComposite in="flood" in2="offset" operator="in" result="comp1"/>
   <feComposite in="fbSourceGraphic" in2="comp1" result="comp2"/>
  </filter>
  <linearGradient id="linearGradient38" x1="-4736" x2="-736" y1="-6494" y2="-6494" gradientTransform="translate(4736 7744)" gradientUnits="userSpaceOnUse">
   <stop stop-color="#05222e" offset="0"/>
   <stop stop-color="#0a3943" offset="1"/>
  </linearGradient>
 </defs>
 <g fill-rule="evenodd">
  <path transform="matrix(.265 0 0 .276 253 2385)" d="m-61.5 173-106-57.9-118 51.5 22.4-119-85.5-96.3 120-15.3 65.2-111 51.5 109 126 27.7-87.8 82.7z" fill="#f7ec1d"/>
  <text x="-1904" y="-3617.3125" fill="#78fed0" font-size="192px" stroke-linecap="round" stroke-linejoin="bevel" stroke-width="6" xml:space="preserve"><tspan x="-1904" y="-3617.3125"/></text>
  <rect y="-.373" width="4e3" height="2500" fill="url(#linearGradient38)" stroke-linecap="round" stroke-linejoin="bevel" stroke-width="6"/>
 </g>
 <g transform="rotate(47.6 -716 1463)" fill-rule="evenodd">
  <rect x="10.7" y="10.7" width="1e3" height="1e3" rx="128" fill="#fff" stroke="#000" stroke-linecap="round" stroke-linejoin="bevel" stroke-width="21.3"/>
  <g stroke-width="10.7">
   <path d="m512 672c-135 0-252 38.3-352 105 73.4 39.4 203 65.5 352 65.5 149 0 279-26.2 352-65.5-101-66.7-217-105-352-105z" fill="#f7941d"/>
   <rect x="277" y="405" width="85.3" height="85.3" rx="42.7"/>
   <rect x="661" y="405" width="85.3" height="85.3" rx="42.7"/>
   <path d="m290 60.5a256 341 0 006.03 10.6 256 341 0 01-6.03-10.6zm422 .198a256 341 0 01-4.51 8.05 256 341 0 004.51-8.05zm-407 24.6a256 341 0 008.19 12.1 256 341 0 01-8.19-12.1zm392 1.43a256 341 0 01-5.22 7.93 256 341 0 005.22-7.93zm-182 19.2c-66.1 0-128 5.27-184 14.4a256 341 0 00170 84 256 341 0 00174-87.7c-49.3-6.88-103-10.7-160-10.7zm-194 1.75a256 341 0 0010.1 12.6 256 341 0 01-10.1-12.6z" fill="#af1e25"/>
  </g>
  <rect x="96.2" y="96.2" width="832" height="746" rx="416" ry="140" fill-opacity=".533" stroke="#000" stroke-linecap="round" stroke-linejoin="bevel" stroke-width="21.8"/>
 </g>
 <g transform="translate(-120,-400)" fill-rule="evenodd">
  <rect x="1874" y="-924" width="3e3" height="3200" rx="3e3" fill="#8590a1"/>
  <rect x="2137" y="-422" width="2550" height="2510" rx="3e3" fill="#586373"/>
 </g>
 <g fill="#ffffff" fill-rule="evenodd" font-family="Arial" font-size="640px" font-weight="900" stroke-linecap="round" stroke-linejoin="bevel" stroke-opacity=".0667" stroke-width="16">
  <text transform="matrix(.856 0 0 .856 9906 6543)" x="-9922.8916" y="-6202.0332" filter="url(#filter198)" xml:space="preserve"><tspan x="-9922.8916" y="-6202.0332">Chicken</tspan></text>
  <text transform="matrix(.588 0 0 .588 3305 4611)" x="-2484.4158" y="-3940.613" filter="url(#filter198-5)" xml:space="preserve"><tspan x="-2484.4158" y="-3940.613">Episode 2 </tspan></text>
  <text transform="matrix(.464 0 0 .464 4897 3031)" x="-9775.1875" y="-4533.875" filter="url(#filter198)" xml:space="preserve"><tspan x="-9775.1875" y="-4533.875">Butter</tspan></text>
  <text transform="matrix(.856 0 0 .856 8712 6472)" x="-10063.292" y="-6859.9707" filter="url(#filter198-7)" xml:space="preserve"><tspan x="-10063.292" y="-6859.9707">BadLuck</tspan></text>
 </g>
</svg>
